<svg width="100" height="59" viewBox="0 0 100 59" fill="none" xmlns="http://www.w3.org/2000/svg">
<path d="M50.387 0.985C51.4963 0.235 52.787 2.13995e-08 53.667 2.13995e-08H57.5229C58.7309 -9.36802e-05 59.9162 0.307531 60.9521 0.89L65.7067 3.565C66.1011 3.78716 66.4275 4.10123 66.6541 4.47666C66.8808 4.85209 66.9999 5.27612 67 5.7075V8.75C67 9.74456 66.5786 10.6984 65.8285 11.4017C65.0783 12.1049 64.0609 12.5 63.0001 12.5H61.6668V32.595C62.7894 32.7575 63.9147 33.15 64.8534 33.8825C66.2134 34.9425 67 36.575 67 38.75C67 39.0815 66.8595 39.3995 66.6095 39.6339C66.3594 39.8683 66.0203 40 65.6667 40H35.0007C33.3224 40.0002 31.6865 39.5055 30.3246 38.5859C28.9627 37.6663 27.9438 36.3685 27.4121 34.8761C26.8804 33.3836 26.8628 31.7722 27.3618 30.2699C27.8609 28.7676 28.8513 27.4505 30.1928 26.505C30.4759 26.3136 30.8277 26.2338 31.1728 26.2829C31.5178 26.3319 31.8286 26.5059 32.0384 26.7673C32.2482 27.0288 32.3403 27.357 32.2948 27.6814C32.2494 28.0058 32.0701 28.3006 31.7955 28.5025C30.9007 29.1327 30.2401 30.0108 29.9072 31.0125C29.5743 32.0142 29.5859 33.0887 29.9404 34.0839C30.2949 35.0791 30.9744 35.9445 31.8825 36.5575C32.7907 37.1706 33.8816 37.5004 35.0007 37.5C35.7687 37.5 36.254 37.325 36.574 37.125C36.8904 36.9204 37.1434 36.6409 37.3073 36.315C37.5215 35.9042 37.644 35.4567 37.6673 35V34.8875L37.678 34.6125C37.7664 33.1654 37.9985 31.7292 38.3713 30.3225C39.0726 27.6975 40.4939 24.3325 43.3899 21.615C48.3071 17.0075 48.3338 10.8275 48.3338 8.75V5C48.3338 3.0925 49.2137 1.78 50.387 0.985ZM50.7977 12.25C50.3844 15.39 49.1204 19.78 45.2778 23.385C42.8405 25.6675 41.5952 28.5525 40.9606 30.9275C40.6299 32.1727 40.4228 33.444 40.3419 34.725C40.3384 34.7975 40.3357 34.87 40.3339 34.9425V35.0825L40.3233 35.25C40.2643 36.0343 40.0376 36.7995 39.6566 37.5H56.1176C55.8509 36.7 55.3096 35.8775 54.379 35.42C53.7442 35.1251 53.0418 34.9808 52.3337 35H49.6671C49.3134 35 48.9743 34.8683 48.7243 34.6339C48.4742 34.3995 48.3338 34.0815 48.3338 33.75C48.3338 33.4185 48.4742 33.1005 48.7243 32.8661C48.9743 32.6317 49.3134 32.5 49.6671 32.5H52.3337C52.803 32.5 53.2456 32.535 53.667 32.6V26.25C53.667 25.9185 53.8074 25.6005 54.0575 25.3661C54.3075 25.1317 54.6467 25 55.0003 25C55.3539 25 55.693 25.1317 55.9431 25.3661C56.1931 25.6005 56.3336 25.9185 56.3336 26.25V33.62C57.8802 34.665 58.5922 36.22 58.8615 37.5H64.1947C63.9947 36.68 63.5947 36.1525 63.1468 35.805C62.4614 35.2675 61.4668 35 60.3335 35C59.9799 35 59.6407 34.8683 59.3907 34.6339C59.1407 34.3995 59.0002 34.0815 59.0002 33.75V11.25C59.0002 10.9185 59.1407 10.6005 59.3907 10.3661C59.6407 10.1317 59.9799 10 60.3335 10H63.0001C63.3537 10 63.6928 9.8683 63.9429 9.63388C64.1929 9.39946 64.3334 9.08152 64.3334 8.75V5.7075L59.5815 3.0325C58.9595 2.68337 58.2479 2.49931 57.5229 2.5H53.667C53.2136 2.5 52.5043 2.6375 51.947 3.015C51.4537 3.345 51.0004 3.9075 51.0004 5V8.75C51.0004 8.9675 51.0804 9.32 51.283 9.5825C51.435 9.7825 51.7017 10 52.3337 10C52.9656 10 53.2323 9.78 53.3843 9.5825C53.5619 9.33621 53.66 9.04719 53.667 8.75C53.667 8.41848 53.8074 8.10054 54.0575 7.86612C54.3075 7.6317 54.6467 7.5 55.0003 7.5C55.3539 7.5 55.693 7.6317 55.9431 7.86612C56.1931 8.10054 56.3336 8.41848 56.3336 8.75C56.3336 9.3675 56.1469 10.265 55.5496 11.0425C54.9016 11.885 53.835 12.5 52.3337 12.5C51.8097 12.5047 51.2893 12.42 50.7977 12.25Z" fill="#9F9C9C" fill-opacity="0.5"/>
<path d="M32.8421 49.812H27.3941V48.9H29.5661V47.856H30.7541V48.9H32.8421V49.812ZM34.6901 53.988H33.5861V48.06H34.6901V50.4H36.3221V48H37.4261V54.348H36.3221V51.468H34.6901V53.988ZM32.5901 52.26C32.5901 52.828 32.3621 53.284 31.9061 53.628C31.4501 53.964 30.8741 54.132 30.1781 54.132C29.4821 54.132 28.9061 53.964 28.4501 53.628C27.9941 53.284 27.7661 52.828 27.7661 52.26C27.7661 51.692 27.9941 51.24 28.4501 50.904C28.9061 50.56 29.4821 50.388 30.1781 50.388C30.8741 50.388 31.4501 50.56 31.9061 50.904C32.3621 51.24 32.5901 51.692 32.5901 52.26ZM28.8341 52.26C28.8341 52.548 28.9581 52.788 29.2061 52.98C29.4541 53.172 29.7781 53.268 30.1781 53.268C30.5781 53.268 30.9021 53.172 31.1501 52.98C31.3981 52.788 31.5221 52.548 31.5221 52.26C31.5221 51.972 31.3981 51.732 31.1501 51.54C30.9021 51.348 30.5781 51.252 30.1781 51.252C29.7781 51.252 29.4541 51.348 29.2061 51.54C28.9581 51.732 28.8341 51.972 28.8341 52.26ZM32.9741 54.552C34.3501 54.552 35.4541 54.7 36.2861 54.996C37.1261 55.284 37.5461 55.752 37.5461 56.4C37.5461 57.04 37.1261 57.508 36.2861 57.804C35.4541 58.1 34.3501 58.248 32.9741 58.248C31.5981 58.248 30.4901 58.1 29.6501 57.804C28.8181 57.508 28.4021 57.04 28.4021 56.4C28.4021 55.752 28.8181 55.284 29.6501 54.996C30.4901 54.7 31.5981 54.552 32.9741 54.552ZM32.9741 57.324C33.9421 57.324 34.7381 57.244 35.3621 57.084C35.9861 56.932 36.2981 56.704 36.2981 56.4C36.2981 56.096 35.9861 55.868 35.3621 55.716C34.7381 55.556 33.9421 55.476 32.9741 55.476C32.0061 55.476 31.2101 55.556 30.5861 55.716C29.9621 55.868 29.6501 56.096 29.6501 56.4C29.6501 56.704 29.9621 56.932 30.5861 57.084C31.2101 57.244 32.0061 57.324 32.9741 57.324ZM49.353 52.716V53.676H39.117V52.716H43.641V51.66H39.849V48.12H48.621V49.08H41.037V50.7H48.741V51.66H44.817V52.716H49.353ZM44.229 54.528C45.581 54.528 46.669 54.676 47.493 54.972C48.325 55.268 48.741 55.744 48.741 56.4C48.741 57.056 48.325 57.532 47.493 57.828C46.661 58.132 45.573 58.284 44.229 58.284C42.885 58.284 41.797 58.132 40.965 57.828C40.133 57.532 39.717 57.056 39.717 56.4C39.717 55.744 40.129 55.268 40.953 54.972C41.785 54.676 42.877 54.528 44.229 54.528ZM44.229 57.348C45.165 57.348 45.941 57.272 46.557 57.12C47.181 56.968 47.493 56.728 47.493 56.4C47.493 56.08 47.181 55.844 46.557 55.692C45.941 55.54 45.165 55.464 44.229 55.464C43.293 55.464 42.513 55.54 41.889 55.692C41.273 55.844 40.965 56.08 40.965 56.4C40.965 56.728 41.273 56.968 41.889 57.12C42.513 57.272 43.293 57.348 44.229 57.348ZM60.512 48V54.432H59.384V51.504H57.716V54.324H56.588V48.06H57.716V50.4H59.384V48H60.512ZM55.412 53.868H50.972V48.18H52.076V49.968H54.32V48.18H55.412V53.868ZM54.32 52.896V50.928H52.076V52.896H54.32ZM51.464 54.996H60.512V58.248H59.336V56.016H51.464V54.996ZM72.919 53.196H71.503V58.248H70.315V48H71.503V52.056H72.919V53.196ZM67.243 49.5H62.575V48.396H68.443V54.924H67.243V49.5ZM66.103 56.52C67.671 56.52 68.791 56.376 69.463 56.088V57.204C68.759 57.492 67.643 57.636 66.115 57.636H62.203V56.52H63.991V52.176H65.191V56.52H66.103Z" fill="#9F9C9C" fill-opacity="0.5"/>
</svg>
