<svg width="100" height="59" viewBox="0 0 100 59" fill="none" xmlns="http://www.w3.org/2000/svg">
<path d="M37.1381 53.016H35.9501V48H37.1381V53.016ZM31.1861 51.144C30.8181 51.624 30.3461 52.02 29.7701 52.332C29.1941 52.636 28.5461 52.828 27.8261 52.908V51.924C28.6581 51.82 29.3301 51.528 29.8421 51.048C30.3621 50.568 30.6661 49.968 30.7541 49.248H27.9581V48.264H34.5941V49.248H31.9301C31.8981 49.616 31.8141 49.968 31.6781 50.304L34.9301 51.924L34.4021 52.788L31.1861 51.144ZM37.3901 57.18V58.116H28.4621V55.404H35.9621V54.516H28.4381V53.58H37.1381V56.292H29.6381V57.18H37.3901ZM47.589 52.236H45.909V51.216H47.589V49.944H45.909V48.924H47.589V48H48.765V53.844H47.589V52.236ZM45.381 53.244H39.537V48.18H40.701V49.644H44.229V48.18H45.381V53.244ZM44.229 52.26V50.604H40.701V52.26H44.229ZM44.421 54.168C45.757 54.168 46.829 54.336 47.637 54.672C48.445 55 48.849 55.512 48.849 56.208C48.849 56.904 48.445 57.416 47.637 57.744C46.829 58.08 45.757 58.248 44.421 58.248C43.085 58.248 42.013 58.08 41.205 57.744C40.397 57.416 39.993 56.904 39.993 56.208C39.993 55.512 40.397 55 41.205 54.672C42.013 54.336 43.085 54.168 44.421 54.168ZM44.421 57.276C45.357 57.276 46.117 57.184 46.701 57C47.285 56.824 47.577 56.56 47.577 56.208C47.577 55.856 47.285 55.592 46.701 55.416C46.117 55.232 45.357 55.14 44.421 55.14C43.485 55.14 42.725 55.232 42.141 55.416C41.557 55.592 41.265 55.856 41.265 56.208C41.265 56.56 41.557 56.824 42.141 57C42.725 57.184 43.485 57.276 44.421 57.276ZM60.512 48V54.432H59.384V51.504H57.716V54.324H56.588V48.06H57.716V50.4H59.384V48H60.512ZM55.412 53.868H50.972V48.18H52.076V49.968H54.32V48.18H55.412V53.868ZM54.32 52.896V50.928H52.076V52.896H54.32ZM51.464 54.996H60.512V58.248H59.336V56.016H51.464V54.996ZM72.919 53.196H71.503V58.248H70.315V48H71.503V52.056H72.919V53.196ZM67.243 49.5H62.575V48.396H68.443V54.924H67.243V49.5ZM66.103 56.52C67.671 56.52 68.791 56.376 69.463 56.088V57.204C68.759 57.492 67.643 57.636 66.115 57.636H62.203V56.52H63.991V52.176H65.191V56.52H66.103Z" fill="white"/>
<path fill-rule="evenodd" clip-rule="evenodd" d="M55.8536 16.744C54.4305 16.744 53.0656 17.283 52.0593 18.2425C51.053 19.202 50.4876 20.5033 50.4876 21.8602C50.4876 23.2172 51.053 24.5185 52.0593 25.478C53.0656 26.4375 54.4305 26.9765 55.8536 26.9765C57.2768 26.9765 58.6416 26.4375 59.648 25.478C60.6543 24.5185 61.2196 23.2172 61.2196 21.8602C61.2196 20.5033 60.6543 19.202 59.648 18.2425C58.6416 17.283 57.2768 16.744 55.8536 16.744ZM53.4145 21.8602C53.4145 21.2435 53.6715 20.6519 54.1289 20.2158C54.5864 19.7797 55.2067 19.5347 55.8536 19.5347C56.5005 19.5347 57.1209 19.7797 57.5783 20.2158C58.0357 20.6519 58.2927 21.2435 58.2927 21.8602C58.2927 22.477 58.0357 23.0685 57.5783 23.5047C57.1209 23.9408 56.5005 24.1858 55.8536 24.1858C55.2067 24.1858 54.5864 23.9408 54.1289 23.5047C53.6715 23.0685 53.4145 22.477 53.4145 21.8602ZM43.6582 14.4184C43.6582 13.9908 43.7465 13.5675 43.9181 13.1725C44.0897 12.7774 44.3413 12.4185 44.6584 12.1162C44.9754 11.8139 45.3519 11.5741 45.7662 11.4104C46.1805 11.2468 46.6245 11.1626 47.0729 11.1626C47.5214 11.1626 47.9654 11.2468 48.3797 11.4104C48.794 11.5741 49.1704 11.8139 49.4875 12.1162C49.8046 12.4185 50.0561 12.7774 50.2277 13.1725C50.3993 13.5675 50.4876 13.9908 50.4876 14.4184C50.4876 15.2819 50.1279 16.11 49.4875 16.7206C48.8471 17.3312 47.9786 17.6742 47.0729 17.6742C46.1673 17.6742 45.2987 17.3312 44.6584 16.7206C44.018 16.11 43.6582 15.2819 43.6582 14.4184ZM47.0729 13.9533C46.9435 13.9533 46.8195 14.0023 46.728 14.0895C46.6365 14.1767 46.5851 14.295 46.5851 14.4184C46.5851 14.5418 46.6365 14.6601 46.728 14.7473C46.8195 14.8345 46.9435 14.8835 47.0729 14.8835C47.2023 14.8835 47.3264 14.8345 47.4179 14.7473C47.5093 14.6601 47.5607 14.5418 47.5607 14.4184C47.5607 14.295 47.5093 14.1767 47.4179 14.0895C47.3264 14.0023 47.2023 13.9533 47.0729 13.9533Z" fill="white"/>
<path d="M45.1231 23.7214C45.6407 23.7214 46.137 23.5254 46.5029 23.1765C46.8688 22.8276 47.0744 22.3544 47.0744 21.8609C47.0744 21.3675 46.8688 20.8943 46.5029 20.5454C46.137 20.1965 45.6407 20.0005 45.1231 20.0005C44.6056 20.0005 44.1093 20.1965 43.7434 20.5454C43.3775 20.8943 43.1719 21.3675 43.1719 21.8609C43.1719 22.3544 43.3775 22.8276 43.7434 23.1765C44.1093 23.5254 44.6056 23.7214 45.1231 23.7214Z" fill="white"/>
<path fill-rule="evenodd" clip-rule="evenodd" d="M34.3911 5.37974e-08C35.1327 5.42388e-05 35.8623 0.179255 36.5117 0.52088C37.1611 0.862505 37.7091 1.35542 38.1046 1.95362C38.5002 2.55182 38.7303 3.23581 38.7736 3.94176C38.8169 4.64772 38.6719 5.35262 38.3521 5.99068L41.2927 8.79254C42.9694 7.48049 44.9277 6.53545 47.0294 6.02417C46.7007 5.38187 46.5499 4.67001 46.5915 3.95642C46.633 3.24282 46.8655 2.55125 47.2668 1.94758C47.668 1.34392 48.2247 0.848259 48.8838 0.507823C49.5429 0.167386 50.2824 -0.00648869 51.0319 0.00275994C51.7814 0.0120086 52.516 0.204073 53.1656 0.560658C53.8152 0.917242 54.3583 1.42647 54.743 2.03984C55.1277 2.6532 55.3414 3.35028 55.3635 4.06466C55.3857 4.77904 55.2157 5.48694 54.8696 6.12091C56.9614 6.67905 58.8756 7.65207 60.5088 8.93951L61.6483 7.85114C61.2018 6.9601 61.1 5.94722 61.3609 4.99154C61.6219 4.03585 62.2289 3.19891 63.0745 2.62866C63.9201 2.05841 64.9499 1.79158 65.9819 1.87532C67.014 1.95907 67.9817 2.388 68.7141 3.08631C69.4465 3.78461 69.8963 4.7073 69.9842 5.69129C70.072 6.67528 69.7921 7.6572 69.1941 8.46346C68.596 9.26973 67.7182 9.84843 66.7159 10.0973C65.7135 10.3461 64.6512 10.249 63.7167 9.82323L62.5771 10.9116C63.8355 12.3604 64.7894 14.0267 65.387 15.8195L65.6114 15.8139C66.1879 15.82 66.7576 15.9343 67.2878 16.1504C67.818 16.3664 68.2984 16.6798 68.7015 17.0729C69.1047 17.4659 69.4227 17.9308 69.6374 18.441C69.8521 18.9512 69.9593 19.4967 69.9529 20.0465C69.9465 20.5962 69.8266 21.1393 69.6001 21.6448C69.3735 22.1504 69.0448 22.6084 68.6325 22.9928C68.2203 23.3772 67.7327 23.6804 67.1976 23.8851C66.6625 24.0899 66.0903 24.1921 65.5138 24.186C64.8264 26.4594 63.5517 28.532 61.8064 30.2139L61.8649 30.2697C62.7995 29.8439 63.8618 29.7468 64.8641 29.9957C65.8664 30.2445 66.7442 30.8232 67.3423 31.6295C67.9404 32.4357 68.2203 33.4176 68.1324 34.4016C68.0446 35.3856 67.5947 36.3083 66.8623 37.0066C66.1299 37.7049 65.1622 38.1339 64.1302 38.2176C63.0982 38.3013 62.0683 38.0345 61.2227 37.4643C60.3771 36.894 59.7702 36.0571 59.5092 35.1014C59.2482 34.1457 59.35 33.1328 59.7966 32.2418L59.5429 31.9999C58.1254 32.912 56.5528 33.583 54.895 33.9832C54.5232 34.6853 53.9514 35.2734 53.2452 35.68C52.539 36.0866 51.7269 36.2953 50.9021 36.2821C50.0772 36.2689 49.273 36.0343 48.5815 35.6054C47.89 35.1764 47.3392 34.5703 46.9924 33.8567C45.4186 33.4251 43.9278 32.7555 42.5766 31.8734C42.5142 31.9738 42.4388 32.0663 42.3522 32.1488L40.3366 34.0725C40.7674 34.9704 40.8515 35.9847 40.5739 36.936C40.2963 37.8874 39.6748 38.7145 38.8195 39.2712C37.9641 39.828 36.9299 40.0785 35.8995 39.9785C34.8692 39.8785 33.9091 39.4344 33.1889 38.7247C32.4688 38.015 32.035 37.0855 31.9641 36.1003C31.8933 35.1151 32.19 34.1378 32.8018 33.3411C33.4136 32.5443 34.3011 31.9795 35.3075 31.7463C36.3139 31.5131 37.3743 31.6267 38.3014 32.0669L40.2839 30.1748C40.3066 30.1537 40.3301 30.1332 40.3541 30.1134C38.489 28.3367 37.1338 26.1329 36.4184 23.7134C35.7535 24.0434 35.0111 24.2055 34.2618 24.1844C33.5126 24.1632 32.7815 23.9595 32.1382 23.5927C31.4948 23.2259 30.9608 22.7081 30.5868 22.0887C30.2128 21.4693 30.0113 20.769 30.0016 20.0543C29.9919 19.3397 30.1743 18.6346 30.5314 18.0062C30.8884 17.3778 31.4083 16.847 32.0414 16.4644C32.6745 16.0818 33.3999 15.8602 34.1483 15.8205C34.8967 15.7809 35.6433 15.9247 36.317 16.2381C36.8535 14.2334 37.8454 12.3655 39.2224 10.7665L36.2838 7.96277C35.6892 8.23378 35.0382 8.37366 34.3791 8.37206C33.7201 8.37045 33.0699 8.2274 32.4767 7.9535C31.8835 7.6796 31.3627 7.28188 30.9527 6.78986C30.5428 6.29783 30.2543 5.72412 30.1086 5.11128C29.9629 4.49843 29.9638 3.86218 30.1112 3.24971C30.2587 2.63725 30.5488 2.06428 30.9602 1.57332C31.3715 1.08236 31.8935 0.685998 32.4874 0.413636C33.0814 0.141273 33.732 -0.000100683 34.3911 5.37974e-08ZM35.8545 4.18604C35.8545 4.0028 35.8167 3.82135 35.7431 3.65206C35.6696 3.48277 35.5618 3.32895 35.4259 3.19938C35.29 3.06981 35.1287 2.96703 34.9511 2.8969C34.7735 2.82678 34.5832 2.79069 34.3911 2.79069C34.1989 2.79069 34.0086 2.82678 33.831 2.8969C33.6535 2.96703 33.4921 3.06981 33.3562 3.19938C33.2203 3.32895 33.1126 3.48277 33.039 3.65206C32.9655 3.82135 32.9276 4.0028 32.9276 4.18604C32.9276 4.5561 33.0818 4.91102 33.3562 5.17269C33.6307 5.43437 34.0029 5.58138 34.3911 5.58138C34.7792 5.58138 35.1514 5.43437 35.4259 5.17269C35.7003 4.91102 35.8545 4.5561 35.8545 4.18604ZM51.1993 31.6278C52.7732 31.6332 54.3327 31.3417 55.7879 30.7699C57.243 30.1981 58.5652 29.3574 59.6781 28.2963C60.791 27.2352 61.6728 25.9745 62.2724 24.5871C62.8721 23.1996 63.1779 21.7127 63.1723 20.212V20.1153C63.1176 13.6855 57.5995 8.42416 50.8559 8.37207C49.2649 8.35385 47.6862 8.63919 46.2127 9.2113C44.7391 9.78341 43.4004 10.6307 42.2754 11.7034C41.1503 12.7761 40.2616 14.0525 39.6616 15.4575C39.0616 16.8625 38.7623 18.3677 38.7814 19.8846C38.8361 26.3144 44.3542 31.5757 51.0998 31.6278H51.1993ZM66.0992 18.6846C66.3844 18.7809 66.6312 18.959 66.8059 19.1946C66.9805 19.4301 67.0742 19.7115 67.0742 20C67.0742 20.2884 66.9805 20.5698 66.8059 20.8053C66.6312 21.0409 66.3844 21.219 66.0992 21.3153V18.6846ZM65.6114 4.65115C65.2232 4.65115 64.851 4.79816 64.5765 5.05984C64.3021 5.32152 64.1479 5.67643 64.1479 6.0465C64.1479 6.41657 64.3021 6.77148 64.5765 7.03315C64.851 7.29483 65.2232 7.44184 65.6114 7.44184C65.9995 7.44184 66.3717 7.29483 66.6462 7.03315C66.9206 6.77148 67.0748 6.41657 67.0748 6.0465C67.0748 5.67643 66.9206 5.32152 66.6462 5.05984C66.3717 4.79816 65.9995 4.65115 65.6114 4.65115ZM34.3911 18.6046C34.7792 18.6046 35.1514 18.7516 35.4259 19.0133C35.7003 19.275 35.8545 19.6299 35.8545 20C35.8545 20.37 35.7003 20.7249 35.4259 20.9866C35.1514 21.2483 34.7792 21.3953 34.3911 21.3953C34.0029 21.3953 33.6307 21.2483 33.3562 20.9866C33.0818 20.7249 32.9276 20.37 32.9276 20C32.9276 19.6299 33.0818 19.275 33.3562 19.0133C33.6307 18.7516 34.0029 18.6046 34.3911 18.6046ZM62.2942 34.0464C62.2942 34.4165 62.4484 34.7714 62.7228 35.0331C62.9973 35.2948 63.3695 35.4418 63.7577 35.4418C64.1458 35.4418 64.518 35.2948 64.7925 35.0331C65.0669 34.7714 65.2211 34.4165 65.2211 34.0464C65.2211 33.6764 65.0669 33.3214 64.7925 33.0598C64.518 32.7981 64.1458 32.6511 63.7577 32.6511C63.3695 32.6511 62.9973 32.7981 62.7228 33.0598C62.4484 33.3214 62.2942 33.6764 62.2942 34.0464ZM36.3423 37.2092C36.7305 37.2092 37.1027 37.0622 37.3771 36.8005C37.6516 36.5388 37.8058 36.1839 37.8058 35.8139C37.8058 35.4438 37.6516 35.0889 37.3771 34.8272C37.1027 34.5655 36.7305 34.4185 36.3423 34.4185C35.9542 34.4185 35.582 34.5655 35.3075 34.8272C35.0331 35.0889 34.8789 35.4438 34.8789 35.8139C34.8789 36.1839 35.0331 36.5388 35.3075 36.8005C35.582 37.0622 35.9542 37.2092 36.3423 37.2092ZM49.5134 4.18604C49.5134 3.81597 49.6676 3.46106 49.942 3.19938C50.2165 2.9377 50.5887 2.79069 50.9768 2.79069C51.365 2.79069 51.7372 2.9377 52.0117 3.19938C52.2861 3.46106 52.4403 3.81597 52.4403 4.18604C52.4403 4.5561 52.2861 4.91102 52.0117 5.17269C51.7372 5.43437 51.365 5.58138 50.9768 5.58138C50.5887 5.58138 50.2165 5.43437 49.942 5.17269C49.6676 4.91102 49.5134 4.5561 49.5134 4.18604Z" fill="white"/>
</svg>
