<svg width="100" height="59" viewBox="0 0 100 59" fill="none" xmlns="http://www.w3.org/2000/svg">
<path fill-rule="evenodd" clip-rule="evenodd" d="M43.3255 16.746C44.4973 15.1145 46.2349 13.9399 48.3326 13.9399C50.4938 13.9399 52.1549 15.1012 53.3326 16.7315C54.5114 15.1012 56.1726 13.9399 58.3326 13.9399C59.5749 13.9399 60.6738 14.289 61.6055 14.9096C62.3161 15.391 62.9293 16.0097 63.4114 16.7315C63.5905 16.9947 63.6608 17.3206 63.6067 17.6372C63.5526 17.9539 63.3787 18.2354 63.1232 18.4199C62.8676 18.6045 62.5514 18.6768 62.2441 18.6212C61.9367 18.5655 61.6634 18.3863 61.4844 18.123C60.6326 16.8709 59.5502 16.3642 58.3326 16.3642C56.7102 16.3642 55.3443 17.5121 54.4008 19.6175L53.3326 21.9993L52.2655 19.6175C51.3208 17.5121 49.9561 16.3642 48.3326 16.3642C47.1561 16.3642 46.0608 17.0139 45.2173 18.1872C44.3702 19.3666 43.8432 21.0042 43.8432 22.7315C43.8432 23.6648 43.9796 24.5618 44.222 25.4212C44.342 25.8418 44.4867 26.2539 44.6538 26.6575C45.8432 29.5266 48.4573 31.9084 50.6044 33.6296C50.8429 33.8297 50.9958 34.118 51.0305 34.4328C51.0653 34.7477 50.9789 35.064 50.7901 35.3141C50.6012 35.5641 50.3248 35.728 50.02 35.7707C49.7153 35.8134 49.4064 35.7314 49.1596 35.5424C48.7796 35.2393 48.3714 34.9036 47.9502 34.5399C45.9738 32.8345 43.6844 30.489 42.4902 27.6102C42.2853 27.1181 42.1093 26.6138 41.9632 26.0999C41.6508 25.0056 41.4915 23.8709 41.4902 22.7302C41.4902 20.5242 42.1573 18.3739 43.3255 16.746Z" fill="#9F9C9C" fill-opacity="0.5"/>
<path d="M41.8753 8.24242L43.8435 12.1212L46.1247 8.24242C47.8659 4.47515 50.3753 2.42424 53.3753 2.42424C55.5553 2.42424 57.5718 3.5903 59.1188 5.68242C60.6753 7.78788 61.6471 10.7127 61.6471 13.7927C61.6471 14.1685 61.6329 14.5394 61.6059 14.9091C62.3164 15.3905 62.9297 16.0091 63.4118 16.7309C63.5424 16.9224 63.6118 17.1406 63.6235 17.3588C63.9 16.177 64 15.1855 64 13.7927C64 6.63758 59.5165 0 53.3753 0C50.0106 0 47.3306 1.85697 45.3906 4.71879C44.8616 5.50505 44.3965 6.33494 44 7.2C43.6035 6.33454 43.1384 5.50426 42.6094 4.71758C40.6694 1.85697 37.9906 0 34.6235 0C28.4835 0 24 6.63636 24 13.7939C24 15.7164 24.2894 17.5564 24.8 19.3055C25.0494 20.1612 25.3518 20.9952 25.6976 21.8061C30.5294 33.1091 44 40 44 40C44 40 46.8894 38.4267 50.4718 35.6352C50.2689 35.7559 50.0357 35.8116 49.802 35.7949C49.5683 35.7783 49.3448 35.6902 49.16 35.5418C48.78 35.2388 48.3718 34.903 47.9506 34.5394C47.1906 35.1018 46.4776 35.6 45.84 36.0291C45.2248 36.4426 44.6011 36.8427 43.9694 37.2291C41.9245 36.0301 39.9607 34.6896 38.0918 33.217C34.2482 30.183 30.0329 25.9358 27.8518 20.8291C27.5416 20.1065 27.2748 19.3649 27.0529 18.6085C26.592 17.0472 26.3562 15.4246 26.3529 13.7927C26.3529 10.7115 27.3247 7.78667 28.8824 5.68242C30.4271 3.5903 32.4435 2.42424 34.6235 2.42424C37.6235 2.42424 40.1341 4.47515 41.8753 8.24242ZM62.1835 21.9406C62.3587 21.9431 62.5316 21.9812 62.6925 22.0526C62.8533 22.1241 62.999 22.2275 63.121 22.3569C63.2431 22.4864 63.3391 22.6394 63.4038 22.8071C63.4684 22.9749 63.5003 23.1541 63.4977 23.3345C63.4388 27.8315 61.3271 30.8921 59.2753 32.7891C58.4221 33.5763 57.4852 34.2615 56.4824 34.8315C56.0903 35.0542 55.6874 35.2561 55.2753 35.4364C55.2412 35.4497 55.2141 35.4606 55.1941 35.4703L55.1694 35.48L55.16 35.4836L55.1565 35.4849C54.829 35.5992 54.4712 35.5782 54.1585 35.426C53.8458 35.2739 53.6026 35.0027 53.4803 34.6694C53.3579 34.3362 53.3659 33.9671 53.5026 33.6398C53.6393 33.3125 53.894 33.0527 54.2129 32.9151L54.2188 32.9127L54.2612 32.8945C54.5799 32.7537 54.8916 32.5968 55.1953 32.4242C56.0205 31.9556 56.7916 31.3924 57.4941 30.7455C59.1565 29.2085 60.7847 26.8255 60.8318 23.2958C60.8341 23.1153 60.8709 22.9371 60.9401 22.7713C61.0093 22.6055 61.1095 22.4554 61.235 22.3295C61.3606 22.2037 61.509 22.1045 61.6717 22.0378C61.8345 21.9711 62.0084 21.938 62.1835 21.9406Z" fill="#9F9C9C" fill-opacity="0.5"/>
<path d="M37.4261 48V58.248H36.2981V48H37.4261ZM33.7781 48.06H34.8941V58.068H33.7781V53.268H32.0621C31.8541 54.604 31.3741 55.656 30.6221 56.424C29.8781 57.184 28.9381 57.58 27.8021 57.612V56.52C28.6901 56.472 29.4021 56.156 29.9381 55.572C30.4741 54.98 30.8141 54.18 30.9581 53.172H27.8021V52.104H31.0421V51.984V49.44H27.8021V48.372H32.1701V51.816V52.152H33.7781V48.06ZM48.765 48V58.248H47.577V53.364H45.609C45.561 54.82 45.261 55.92 44.709 56.664C44.165 57.4 43.449 57.768 42.561 57.768C41.625 57.768 40.881 57.368 40.329 56.568C39.777 55.768 39.501 54.58 39.501 53.004C39.501 51.428 39.777 50.24 40.329 49.44C40.881 48.64 41.625 48.24 42.561 48.24C43.417 48.24 44.113 48.576 44.649 49.248C45.185 49.92 45.497 50.92 45.585 52.248H47.577V48H48.765ZM42.561 56.676C43.121 56.676 43.569 56.376 43.905 55.776C44.249 55.168 44.421 54.244 44.421 53.004C44.421 51.764 44.249 50.844 43.905 50.244C43.569 49.636 43.121 49.332 42.561 49.332C41.993 49.332 41.537 49.636 41.193 50.244C40.857 50.844 40.689 51.764 40.689 53.004C40.689 54.244 40.857 55.168 41.193 55.776C41.537 56.376 41.993 56.676 42.561 56.676ZM54.104 49.08H51.26V48.12H55.292V51.06H54.104V49.08ZM59.012 49.08H55.892V48.12H60.188V51.06H59.012V49.08ZM56.36 52.524V53.628H60.188V56.328H52.532V57.204H60.368V58.128H51.368V55.428H59.024V54.552H51.344V53.628H55.184V52.524H50.66V51.576H60.896V52.524H56.36ZM71.767 48V53.664H70.579V48H71.767ZM69.775 53.064C69.455 53.2 68.999 53.312 68.407 53.4C67.823 53.48 67.171 53.52 66.451 53.52H62.671V48.252H69.031V49.212H63.847V50.412H68.827V51.348H63.847V52.56H66.547C67.243 52.56 67.871 52.52 68.431 52.44C68.999 52.36 69.447 52.248 69.775 52.104V53.064ZM70.591 54.228H71.767V58.116H63.079V54.228H64.255V55.164H70.591V54.228ZM70.591 57.156V56.1H64.255V57.156H70.591Z" fill="#9F9C9C" fill-opacity="0.5"/>
</svg>
