<svg width="25" height="25" viewBox="0 0 25 25" fill="none" xmlns="http://www.w3.org/2000/svg">
<path fill-rule="evenodd" clip-rule="evenodd" d="M11.1201 2.50785e-08C9.34671 0.000151098 7.5991 0.424367 6.02305 1.23725C4.447 2.05014 3.0882 3.22813 2.06002 4.67294C1.03184 6.11775 0.364097 7.78748 0.112499 9.54282C-0.139099 11.2982 0.0327432 13.0882 0.61369 14.7637C1.19464 16.4391 2.16784 17.9513 3.45211 19.1741C4.73638 20.397 6.29446 21.295 7.99638 21.7932C9.6983 22.2914 11.4947 22.3755 13.2357 22.0383C14.9767 21.7011 16.6118 20.9524 18.0046 19.8548L22.7827 24.6327C23.0295 24.8711 23.36 25.0029 23.703 25C24.0461 24.997 24.3742 24.8594 24.6168 24.6168C24.8594 24.3742 24.997 24.0461 25 23.7031C25.0029 23.36 24.8711 23.0296 24.6327 22.7828L19.8546 18.0049C21.1473 16.3651 21.9521 14.3945 22.1771 12.3186C22.402 10.2428 22.038 8.14553 21.1266 6.2669C20.2153 4.38827 18.7934 2.80416 17.0237 1.69586C15.2541 0.587568 13.2081 -0.000140176 11.1201 2.50785e-08ZM2.61576 11.1206C2.61576 8.86519 3.51175 6.70217 5.10661 5.10736C6.70148 3.51256 8.86458 2.61661 11.1201 2.61661C13.3755 2.61661 15.5386 3.51256 17.1335 5.10736C18.7284 6.70217 19.6244 8.86519 19.6244 11.1206C19.6244 13.376 18.7284 15.539 17.1335 17.1338C15.5386 18.7286 13.3755 19.6246 11.1201 19.6246C8.86458 19.6246 6.70148 18.7286 5.10661 17.1338C3.51175 15.539 2.61576 13.376 2.61576 11.1206Z" fill="black"/>
</svg>
