<?xml version="1.0" encoding="UTF-8" standalone="no"?>
<svg
   xmlns:dc="http://purl.org/dc/elements/1.1/"
   xmlns:cc="http://creativecommons.org/ns#"
   xmlns:rdf="http://www.w3.org/1999/02/22-rdf-syntax-ns#"
   xmlns:svg="http://www.w3.org/2000/svg"
   xmlns="http://www.w3.org/2000/svg"
   viewBox="0 0 266.66666 53.333332"
   height="53.333332"
   width="266.66666"
   xml:space="preserve"
   id="svg2"
   version="1.1"><metadata
     id="metadata8"><rdf:RDF><cc:Work
         rdf:about=""><dc:format>image/svg+xml</dc:format><dc:type
           rdf:resource="http://purl.org/dc/dcmitype/StillImage" /></cc:Work></rdf:RDF></metadata><defs
     id="defs6"><clipPath
       id="clipPath18"
       clipPathUnits="userSpaceOnUse"><path
         id="path16"
         d="M 0,40 H 200 V 0 H 0 Z" /></clipPath></defs><g
     transform="matrix(1.3333333,0,0,-1.3333333,0,53.333333)"
     id="g10"><g
       id="g12"><g
         clip-path="url(#clipPath18)"
         id="g14"><g
           transform="translate(95.2858,32.1806)"
           id="g20"><path
             id="path22"
             style="fill:#f4bd1f;fill-opacity:1;fill-rule:nonzero;stroke:none"
             d="m 0,0 c 0.216,0.193 0.462,0.355 0.725,0.477 -0.342,0.106 -0.726,0.065 -1.037,-0.112 0.052,0.09 0.103,0.178 0.157,0.268 -0.048,0.011 -0.095,0.022 -0.143,0.032 0.16,0.101 0.27,0.281 0.282,0.47 -0.092,-0.08 -0.183,-0.161 -0.275,-0.243 0.226,0.536 0.17,1.145 0.065,1.713 C -0.332,3.174 -0.485,3.747 -0.445,4.324 -0.539,4.283 -0.631,4.242 -0.726,4.2 -0.752,4.188 -0.782,4.176 -0.808,4.188 -0.835,4.201 -0.845,4.234 -0.852,4.262 -0.898,4.439 -0.942,4.614 -0.987,4.791 -1.061,4.781 -1.133,4.773 -1.207,4.761 -0.984,4.974 -0.81,5.239 -0.705,5.53 -1.238,5.265 -1.745,4.943 -2.21,4.57 -2.186,4.621 -2.16,4.671 -2.135,4.722 -2.682,4.344 -3.269,3.917 -3.447,3.276 -3.458,3.408 -3.471,3.537 -3.483,3.669 -3.786,3.173 -4.044,2.651 -4.254,2.112 -4.302,2.306 -4.32,2.512 -4.309,2.713 -4.515,2.462 -4.611,2.127 -4.573,1.804 -4.546,1.59 -4.465,1.387 -4.429,1.176 -4.381,0.876 -4.428,0.562 -4.564,0.292 -4.99,0.299 -5.417,0.24 -5.825,0.115 l -0.014,0.048 c -0.402,0.095 -0.789,0.258 -1.136,0.481 0.093,-0.165 0.071,-0.389 -0.054,-0.529 -0.131,0.72 -0.317,1.526 -0.939,1.909 0.19,-0.132 0.286,-0.389 0.227,-0.614 -0.162,0.159 -0.377,0.242 -0.58,0.335 -0.599,0.276 -1.141,0.665 -1.592,1.144 0.162,-0.181 0.274,-0.406 0.322,-0.645 -0.279,0.249 -0.564,0.499 -0.903,0.654 -0.341,0.153 -0.75,0.198 -1.081,0.028 0.115,-0.026 0.223,-0.081 0.311,-0.16 -0.454,0.113 -0.941,-0.009 -1.348,-0.237 -0.407,-0.227 -0.751,-0.552 -1.089,-0.875 0.108,-0.006 0.217,-0.013 0.325,-0.02 -0.046,-0.031 -0.09,-0.064 -0.135,-0.095 0.075,0.008 0.077,-0.105 0.081,-0.18 0.007,-0.229 0.291,-0.318 0.505,-0.395 0.257,-0.093 0.486,-0.253 0.661,-0.46 0.415,-0.494 0.496,-1.206 0.917,-1.693 -0.068,0.026 -0.136,0.05 -0.205,0.074 0.228,-0.428 0.591,-0.783 1.022,-1.003 -0.36,-0.299 -0.632,-0.703 -0.778,-1.15 0.195,0.169 0.39,0.336 0.584,0.505 -0.064,-0.251 -0.079,-0.513 -0.05,-0.77 0.054,0.091 0.107,0.18 0.161,0.269 0.17,-0.39 0.261,-0.815 0.263,-1.242 0.107,0.22 0.07,0.478 0.094,0.718 0.026,0.242 0.17,0.516 0.413,0.526 -0.094,-0.233 -0.058,-0.515 0.089,-0.718 0.009,0.121 0.057,0.237 0.136,0.328 0.039,-0.092 0.076,-0.186 0.114,-0.28 0.081,0.154 0.196,0.288 0.335,0.392 0.121,-0.299 0.026,-1.423 0.039,-1.473 0.157,-0.584 0.326,-0.751 0.765,-1.163 0.831,-0.781 1.959,-1.223 3.07,-1.415 0.99,-0.17 2.105,-0.152 3.025,0.296 0.209,0.285 0.358,0.613 0.416,0.961 0.007,-0.217 0.07,-0.433 0.179,-0.62 -0.054,0.247 -0.026,0.511 0.078,0.742 0.025,-0.054 0.05,-0.105 0.075,-0.156 0.192,0.316 0.299,0.681 0.316,1.051 -0.004,-0.013 -0.011,-0.026 -0.017,-0.039 0.002,0.132 0.005,0.264 0.006,0.395 0.014,-0.119 0.017,-0.237 0.011,-0.356 0.256,0.554 0.273,1.191 0.283,1.805 0.008,0.369 0.014,0.738 0.021,1.107 0.233,-0.098 0.413,-0.315 0.468,-0.564 0.061,0.471 -0.213,0.968 -0.644,1.166 0.268,0.203 0.577,0.351 0.905,0.429 -0.06,0.153 -0.142,0.297 -0.243,0.427 0.198,0.158 0.493,0.181 0.712,0.055 -0.004,0.074 -0.007,0.147 -0.011,0.22 C 0.382,-0.776 0.478,-0.881 0.573,-0.986 0.553,-0.591 0.332,-0.213 0,0" /></g><g
           transform="translate(52.8761,10.3959)"
           id="g24"><path
             id="path26"
             style="fill:#eab82a;fill-opacity:1;fill-rule:nonzero;stroke:none"
             d="m 0,0 c 0,0.559 -0.015,1.119 -0.045,1.678 -0.029,0.56 -0.068,1.113 -0.116,1.661 l -0.571,7.838 c -0.048,0.643 -0.179,1.044 -0.393,1.205 -0.214,0.161 -0.601,0.342 -1.16,0.545 -0.596,0.226 -1.045,0.461 -1.348,0.705 -0.304,0.244 -0.456,0.717 -0.456,1.419 0,0.631 0.185,1.119 0.554,1.464 0.369,0.345 0.863,0.518 1.482,0.518 h 6.856 c 0.619,0 1.113,-0.173 1.482,-0.518 0.369,-0.345 0.553,-0.833 0.553,-1.464 0,-0.559 -0.122,-0.982 -0.366,-1.267 C 6.228,13.498 5.931,13.278 5.579,13.123 5.228,12.968 4.874,12.825 4.517,12.694 4.16,12.564 3.86,12.376 3.616,12.132 3.372,11.888 3.249,11.528 3.249,11.052 V 10.945 L 4.035,3.374 c 0.06,-0.607 0.104,-1.217 0.134,-1.83 0.03,-0.613 0.045,-1.223 0.045,-1.83 0,-1.642 -0.393,-2.99 -1.179,-4.044 -0.785,-1.053 -1.806,-1.877 -3.062,-2.473 -1.256,-0.595 -2.604,-1.008 -4.044,-1.24 -1.44,-0.232 -2.815,-0.349 -4.124,-0.349 -1.369,0 -2.702,0.134 -4,0.402 -1.297,0.268 -2.469,0.717 -3.517,1.348 -1.047,0.631 -1.88,1.482 -2.499,2.553 -0.619,1.072 -0.929,2.405 -0.929,4 0,0.642 0.033,1.282 0.098,1.919 0.066,0.637 0.122,1.277 0.17,1.919 l 0.518,7.66 v 0.107 c 0,0.381 -0.119,0.658 -0.357,0.83 -0.238,0.173 -0.536,0.307 -0.893,0.402 -0.357,0.095 -0.714,0.211 -1.071,0.348 -0.357,0.137 -0.655,0.354 -0.893,0.652 -0.238,0.297 -0.357,0.732 -0.357,1.303 0,0.631 0.184,1.119 0.553,1.464 0.369,0.345 0.863,0.518 1.482,0.518 h 11.641 c 0.619,0 1.116,-0.173 1.491,-0.518 0.375,-0.345 0.563,-0.833 0.563,-1.464 0,-0.583 -0.114,-1.006 -0.34,-1.267 -0.226,-0.262 -0.523,-0.456 -0.892,-0.581 -0.369,-0.125 -0.762,-0.288 -1.179,-0.491 -0.393,-0.19 -0.646,-0.384 -0.759,-0.58 -0.113,-0.196 -0.181,-0.509 -0.205,-0.937 L -9.963,5.499 c -0.047,-0.797 -0.098,-1.592 -0.152,-2.383 -0.053,-0.792 -0.08,-1.586 -0.08,-2.384 0,-1.654 0.444,-2.845 1.33,-3.571 0.887,-0.726 2.122,-1.089 3.705,-1.089 0.857,0 1.678,0.119 2.464,0.357 0.786,0.238 1.431,0.646 1.937,1.223 C -0.253,-1.771 0,-0.988 0,0" /></g><g
           transform="translate(68.7487,21.5727)"
           id="g28"><path
             id="path30"
             style="fill:#eab82a;fill-opacity:1;fill-rule:nonzero;stroke:none"
             d="M 0,0 C 0.488,0 0.86,-0.17 1.116,-0.509 1.372,-0.848 1.5,-1.244 1.5,-1.696 V -3.339 C 2.44,-2.47 3.476,-1.696 4.606,-1.018 5.737,-0.339 6.856,0 7.963,0 c 1.155,0 2.113,-0.286 2.875,-0.857 0.761,-0.571 1.336,-1.315 1.723,-2.232 0.386,-0.916 0.58,-1.904 0.58,-2.964 v -7.427 c 0,-0.333 0.015,-0.661 0.044,-0.982 0.03,-0.321 0.158,-0.625 0.384,-0.911 0.274,-0.345 0.515,-0.613 0.723,-0.803 0.209,-0.191 0.313,-0.542 0.313,-1.053 0,-0.524 -0.161,-0.926 -0.482,-1.206 -0.322,-0.279 -0.738,-0.419 -1.25,-0.419 H 5.41 c -0.5,0 -0.884,0.149 -1.152,0.446 -0.268,0.298 -0.401,0.691 -0.401,1.179 0,0.452 0.104,0.806 0.312,1.062 0.208,0.256 0.417,0.524 0.625,0.803 0.208,0.28 0.312,0.676 0.312,1.188 v 6.195 c 0,0.56 -0.11,1.107 -0.33,1.643 -0.22,0.535 -0.675,0.803 -1.366,0.803 -0.416,0 -0.774,-0.08 -1.071,-0.241 C 2.041,-5.937 1.762,-6.142 1.5,-6.392 v -7.302 c 0,-0.322 0.012,-0.646 0.035,-0.973 0.024,-0.328 0.143,-0.628 0.358,-0.902 0.25,-0.298 0.458,-0.539 0.624,-0.723 0.167,-0.185 0.25,-0.497 0.25,-0.937 0,-0.488 -0.133,-0.881 -0.401,-1.179 -0.268,-0.297 -0.652,-0.446 -1.152,-0.446 h -7.463 c -0.512,0 -0.928,0.14 -1.25,0.419 -0.321,0.28 -0.482,0.682 -0.482,1.206 0,0.392 0.074,0.699 0.223,0.919 0.149,0.22 0.319,0.426 0.509,0.616 0.191,0.19 0.36,0.423 0.509,0.696 0.149,0.274 0.223,0.649 0.223,1.125 v 6.624 c 0,0.536 -0.083,0.94 -0.25,1.214 -0.166,0.274 -0.363,0.491 -0.589,0.652 -0.226,0.161 -0.423,0.336 -0.589,0.527 -0.167,0.19 -0.25,0.476 -0.25,0.857 0,0.464 0.155,0.83 0.464,1.098 0.31,0.267 0.655,0.479 1.036,0.633 l 3.856,1.554 c 0.452,0.19 0.914,0.357 1.384,0.5 C -0.985,-0.071 -0.5,0 0,0" /></g><g
           transform="translate(93.3163,21.5727)"
           id="g32"><path
             id="path34"
             style="fill:#eab82a;fill-opacity:1;fill-rule:nonzero;stroke:none"
             d="M 0,0 C 0.488,0 0.866,-0.167 1.134,-0.5 1.402,-0.833 1.535,-1.232 1.535,-1.696 V -13.48 c 0,-0.333 0.015,-0.67 0.045,-1.009 0.03,-0.339 0.164,-0.634 0.402,-0.884 0.309,-0.333 0.568,-0.595 0.776,-0.785 0.209,-0.191 0.313,-0.548 0.313,-1.071 0,-0.524 -0.164,-0.926 -0.491,-1.206 -0.327,-0.279 -0.747,-0.419 -1.259,-0.419 h -7.588 c -0.512,0 -0.931,0.137 -1.259,0.41 -0.327,0.274 -0.491,0.679 -0.491,1.215 0,0.511 0.102,0.871 0.304,1.08 0.202,0.208 0.464,0.467 0.785,0.776 0.239,0.238 0.372,0.536 0.402,0.893 0.03,0.357 0.045,0.69 0.045,1 v 6.231 c 0,0.238 -0.018,0.485 -0.054,0.741 -0.035,0.256 -0.137,0.473 -0.303,0.652 -0.048,0.059 -0.104,0.107 -0.17,0.143 -0.065,0.035 -0.122,0.077 -0.169,0.125 -0.262,0.273 -0.503,0.497 -0.724,0.669 -0.22,0.173 -0.33,0.479 -0.33,0.92 0,0.476 0.149,0.845 0.446,1.107 0.298,0.261 0.649,0.47 1.054,0.624 l 3.856,1.554 c 0.453,0.178 0.923,0.342 1.411,0.491 C -0.976,-0.074 -0.488,0 0,0" /></g><g
           transform="translate(115.5092,15.7165)"
           id="g36"><path
             id="path38"
             style="fill:#eab82a;fill-opacity:1;fill-rule:nonzero;stroke:none"
             d="m 0,0 c 0,-1.119 -0.405,-1.97 -1.214,-2.553 -0.809,-0.583 -1.726,-0.875 -2.75,-0.875 -1.047,0 -1.886,0.286 -2.517,0.857 -0.631,0.571 -0.946,1.393 -0.946,2.464 0,0.488 -0.063,0.982 -0.188,1.482 -0.125,0.5 -0.515,0.75 -1.169,0.75 -0.5,0 -0.881,-0.244 -1.143,-0.732 -0.262,-0.488 -0.437,-1.036 -0.527,-1.643 -0.089,-0.607 -0.134,-1.095 -0.134,-1.464 0,-1.024 0.167,-2 0.5,-2.928 0.334,-0.929 0.863,-1.681 1.589,-2.259 0.726,-0.577 1.667,-0.866 2.821,-0.866 0.679,0 1.351,0.164 2.018,0.491 0.666,0.328 1.256,0.652 1.767,0.973 0.512,0.322 0.869,0.482 1.072,0.482 0.369,0 0.613,-0.145 0.732,-0.437 0.119,-0.292 0.178,-0.58 0.178,-0.866 0,-1.071 -0.253,-2.006 -0.759,-2.803 -0.505,-0.798 -1.172,-1.461 -1.999,-1.991 -0.827,-0.529 -1.726,-0.928 -2.696,-1.196 -0.97,-0.268 -1.92,-0.402 -2.848,-0.402 -1.785,0 -3.389,0.384 -4.812,1.152 -1.422,0.768 -2.547,1.842 -3.374,3.223 -0.827,1.38 -1.241,2.975 -1.241,4.785 0,1.964 0.399,3.713 1.196,5.249 0.798,1.535 1.931,2.746 3.401,3.633 1.47,0.887 3.205,1.33 5.205,1.33 0.893,0 1.797,-0.11 2.714,-0.33 C -4.208,5.306 -3.363,4.961 -2.589,4.49 -1.815,4.02 -1.19,3.413 -0.714,2.669 -0.238,1.925 0,1.036 0,0" /></g><g
           transform="translate(125.1863,8.3962)"
           id="g40"><path
             id="path42"
             style="fill:#eab82a;fill-opacity:1;fill-rule:nonzero;stroke:none"
             d="m 0,0 c 0,-0.476 0.113,-0.925 0.339,-1.348 0.226,-0.423 0.613,-0.634 1.161,-0.634 0.107,0 0.208,0.012 0.303,0.036 V 1.75 C 1.601,1.833 1.393,1.875 1.178,1.875 0.726,1.875 0.417,1.652 0.25,1.205 0.083,0.759 0,0.357 0,0 m -8.052,-1.571 c 0,1.095 0.256,2.008 0.767,2.74 0.512,0.732 1.182,1.322 2.009,1.768 0.827,0.446 1.723,0.765 2.687,0.955 0.964,0.191 1.893,0.286 2.785,0.286 C 0.458,4.178 0.726,4.175 1,4.169 1.274,4.163 1.541,4.136 1.803,4.089 v 4.642 c 0,0.297 -0.062,0.643 -0.187,1.035 -0.125,0.393 -0.378,0.59 -0.759,0.59 C 0.488,10.356 0.259,10.204 0.17,9.9 0.08,9.597 0.036,9.308 0.036,9.034 0.036,8.915 0.039,8.793 0.045,8.668 0.051,8.543 0.054,8.415 0.054,8.284 c 0,-1.226 -0.423,-2.086 -1.268,-2.58 -0.845,-0.493 -1.809,-0.74 -2.893,-0.74 -0.904,0 -1.69,0.202 -2.356,0.607 -0.667,0.404 -1,1.118 -1,2.142 0,0.405 0.08,0.798 0.241,1.178 0.161,0.381 0.366,0.721 0.616,1.018 0.726,0.881 1.64,1.554 2.741,2.018 1.101,0.464 2.261,0.782 3.481,0.955 1.22,0.173 2.366,0.259 3.437,0.259 1.214,0 2.327,-0.173 3.339,-0.518 C 7.404,12.278 8.213,11.704 8.82,10.9 9.427,10.097 9.731,9.016 9.731,7.66 v -8.231 c 0,-0.203 0.047,-0.381 0.142,-0.536 0.096,-0.155 0.256,-0.232 0.483,-0.232 0.178,0 0.33,0.056 0.455,0.17 0.125,0.113 0.277,0.169 0.455,0.169 0.345,0 0.604,-0.119 0.777,-0.357 0.172,-0.238 0.259,-0.518 0.259,-0.839 0,-0.833 -0.253,-1.55 -0.759,-2.152 -0.506,-0.601 -1.134,-1.059 -1.884,-1.374 -0.75,-0.316 -1.506,-0.473 -2.267,-0.473 -0.893,0 -1.795,0.196 -2.705,0.589 C 3.776,-5.213 3.148,-4.6 2.803,-3.767 2.196,-4.612 1.366,-5.228 0.312,-5.615 c -1.053,-0.387 -2.086,-0.58 -3.097,-0.58 -0.929,0 -1.795,0.175 -2.598,0.526 -0.804,0.351 -1.449,0.872 -1.937,1.562 -0.488,0.691 -0.732,1.536 -0.732,2.536" /></g><g
           transform="translate(147.7364,13.3061)"
           id="g44"><path
             id="path46"
             style="fill:#eab82a;fill-opacity:1;fill-rule:nonzero;stroke:none"
             d="m 0,0 v -5.213 c 0,-0.691 0.08,-1.155 0.241,-1.393 0.161,-0.238 0.586,-0.429 1.277,-0.571 0.607,-0.119 1.092,-0.259 1.455,-0.42 0.363,-0.161 0.544,-0.616 0.544,-1.366 0,-0.536 -0.16,-0.94 -0.482,-1.214 -0.321,-0.274 -0.744,-0.411 -1.267,-0.411 H -7.66 c -0.511,0 -0.934,0.137 -1.267,0.411 -0.333,0.274 -0.5,0.678 -0.5,1.214 0,0.429 0.08,0.75 0.241,0.964 0.161,0.214 0.345,0.408 0.553,0.581 0.209,0.172 0.393,0.398 0.554,0.678 0.161,0.28 0.241,0.705 0.241,1.277 v 6.481 c 0,0.535 -0.092,0.937 -0.277,1.205 -0.184,0.268 -0.393,0.479 -0.625,0.634 -0.232,0.154 -0.44,0.33 -0.625,0.526 -0.184,0.197 -0.276,0.491 -0.276,0.884 0,0.464 0.151,0.83 0.455,1.098 0.303,0.268 0.652,0.479 1.044,0.634 l 4.464,1.768 c 0.286,0.119 0.577,0.232 0.875,0.339 0.297,0.107 0.607,0.161 0.928,0.161 0.417,0 0.726,-0.158 0.929,-0.474 0.202,-0.315 0.342,-0.678 0.419,-1.089 0.078,-0.41 0.134,-0.77 0.17,-1.08 0.036,-0.214 0.071,-0.428 0.107,-0.643 0.036,-0.214 0.066,-0.428 0.089,-0.642 0.369,1.095 0.938,2.023 1.705,2.785 0.768,0.762 1.83,1.143 3.187,1.143 0.965,0 1.723,-0.238 2.277,-0.715 C 7.561,7.076 7.957,6.466 8.195,5.722 8.433,4.978 8.552,4.19 8.552,3.357 8.552,2.583 8.451,1.836 8.249,1.116 8.046,0.396 7.692,-0.196 7.186,-0.661 6.681,-1.125 5.969,-1.357 5.053,-1.357 c -1,0 -1.729,0.155 -2.187,0.464 C 2.407,-0.583 2.113,-0.202 1.982,0.25 1.851,0.702 1.782,1.155 1.777,1.607 1.771,2.059 1.732,2.44 1.66,2.75 1.589,3.059 1.375,3.214 1.018,3.214 0.696,3.214 0.464,2.991 0.321,2.544 0.179,2.098 0.089,1.619 0.054,1.107 0.018,0.595 0,0.226 0,0" /></g><g
           transform="translate(164.0731,14.0382)"
           id="g48"><path
             id="path50"
             style="fill:#eab82a;fill-opacity:1;fill-rule:nonzero;stroke:none"
             d="m 0,0 v -0.393 h 1.857 c 0.452,0 0.762,0.104 0.928,0.313 0.167,0.208 0.25,0.526 0.25,0.955 C 3.035,1.161 3,1.535 2.928,2 2.857,2.464 2.717,2.881 2.509,3.249 2.3,3.618 2,3.803 1.607,3.803 1.25,3.803 0.964,3.657 0.75,3.366 0.536,3.074 0.375,2.711 0.268,2.276 0.161,1.842 0.089,1.416 0.054,1 0.018,0.583 0,0.25 0,0 m 10.927,0.482 c 0,-1.059 -0.313,-1.863 -0.937,-2.41 C 9.365,-2.476 8.54,-2.75 7.517,-2.75 H 0.321 c 0.274,-1.023 0.762,-1.883 1.464,-2.58 0.703,-0.696 1.714,-1.044 3.036,-1.044 0.523,0 1.044,0.11 1.562,0.33 0.518,0.22 1.006,0.479 1.464,0.777 0.458,0.298 0.86,0.556 1.205,0.777 0.345,0.22 0.607,0.33 0.786,0.33 0.345,0 0.595,-0.122 0.75,-0.366 0.154,-0.244 0.232,-0.521 0.232,-0.83 0,-1.083 -0.253,-2.033 -0.759,-2.848 -0.506,-0.815 -1.172,-1.491 -2,-2.027 -0.827,-0.535 -1.732,-0.937 -2.714,-1.205 -0.982,-0.268 -1.949,-0.401 -2.901,-0.401 -1.869,0 -3.517,0.386 -4.946,1.16 -1.428,0.774 -2.544,1.86 -3.347,3.259 -0.804,1.398 -1.205,3.044 -1.205,4.936 0,2.024 0.389,3.785 1.169,5.285 0.78,1.5 1.901,2.663 3.366,3.491 1.464,0.827 3.219,1.241 5.267,1.241 1.416,0 2.746,-0.268 3.99,-0.804 C 7.984,6.195 8.993,5.404 9.766,4.356 10.54,3.309 10.927,2.018 10.927,0.482" /></g></g></g></g></svg>