<svg width="70" height="75" viewBox="0 0 70 75" fill="none" xmlns="http://www.w3.org/2000/svg">
<path d="M17.8508 66.688H16.2668V60H17.8508V66.688ZM9.91475 64.192C9.42408 64.832 8.79475 65.36 8.02675 65.776C7.25875 66.1813 6.39475 66.4373 5.43475 66.544V65.232C6.54408 65.0933 7.44008 64.704 8.12275 64.064C8.81608 63.424 9.22142 62.624 9.33875 61.664H5.61075V60.352H14.4588V61.664H10.9068C10.8641 62.1547 10.7521 62.624 10.5708 63.072L14.9068 65.232L14.2028 66.384L9.91475 64.192ZM18.1868 72.24V73.488H6.28275V69.872H16.2828V68.688H6.25075V67.44H17.8508V71.056H7.85075V72.24H18.1868ZM31.7854 65.648H29.5454V64.288H31.7854V62.592H29.5454V61.232H31.7854V60H33.3534V67.792H31.7854V65.648ZM28.8414 66.992H21.0494V60.24H22.6014V62.192H27.3054V60.24H28.8414V66.992ZM27.3054 65.68V63.472H22.6014V65.68H27.3054ZM27.5614 68.224C29.3427 68.224 30.772 68.448 31.8494 68.896C32.9267 69.3333 33.4654 70.016 33.4654 70.944C33.4654 71.872 32.9267 72.5547 31.8494 72.992C30.772 73.44 29.3427 73.664 27.5614 73.664C25.78 73.664 24.3507 73.44 23.2734 72.992C22.196 72.5547 21.6574 71.872 21.6574 70.944C21.6574 70.016 22.196 69.3333 23.2734 68.896C24.3507 68.448 25.78 68.224 27.5614 68.224ZM27.5614 72.368C28.8094 72.368 29.8227 72.2453 30.6014 72C31.38 71.7653 31.7694 71.4133 31.7694 70.944C31.7694 70.4747 31.38 70.1227 30.6014 69.888C29.8227 69.6427 28.8094 69.52 27.5614 69.52C26.3134 69.52 25.3 69.6427 24.5214 69.888C23.7427 70.1227 23.3534 70.4747 23.3534 70.944C23.3534 71.4133 23.7427 71.7653 24.5214 72C25.3 72.2453 26.3134 72.368 27.5614 72.368ZM49.016 60V68.576H47.512V64.672H45.288V68.432H43.784V60.08H45.288V63.2H47.512V60H49.016ZM42.216 67.824H36.296V60.24H37.768V62.624H40.76V60.24H42.216V67.824ZM40.76 66.528V63.904H37.768V66.528H40.76ZM36.952 69.328H49.016V73.664H47.448V70.688H36.952V69.328ZM65.5586 66.928H63.6706V73.664H62.0866V60H63.6706V65.408H65.5586V66.928ZM57.9906 62H51.7666V60.528H59.5906V69.232H57.9906V62ZM56.4706 71.36C58.5613 71.36 60.0546 71.168 60.9506 70.784V72.272C60.012 72.656 58.524 72.848 56.4866 72.848H51.2706V71.36H53.6546V65.568H55.2546V71.36H56.4706Z" fill="#9F9C9C" fill-opacity="0.5"/>
<path fill-rule="evenodd" clip-rule="evenodd" d="M42.3205 20.9308C40.5415 20.9308 38.8354 21.6046 37.5775 22.804C36.3197 24.0033 35.613 25.63 35.613 27.3262C35.613 29.0223 36.3197 30.649 37.5775 31.8483C38.8354 33.0477 40.5415 33.7215 42.3205 33.7215C44.0994 33.7215 45.8055 33.0477 47.0634 31.8483C48.3213 30.649 49.0279 29.0223 49.0279 27.3262C49.0279 25.63 48.3213 24.0033 47.0634 22.804C45.8055 21.6046 44.0994 20.9308 42.3205 20.9308ZM39.2716 27.3262C39.2716 26.5552 39.5928 25.8158 40.1646 25.2706C40.7364 24.7255 41.5119 24.4192 42.3205 24.4192C43.1291 24.4192 43.9046 24.7255 44.4763 25.2706C45.0481 25.8158 45.3693 26.5552 45.3693 27.3262C45.3693 28.0971 45.0481 28.8365 44.4763 29.3817C43.9046 29.9269 43.1291 30.2331 42.3205 30.2331C41.5119 30.2331 40.7364 29.9269 40.1646 29.3817C39.5928 28.8365 39.2716 28.0971 39.2716 27.3262ZM27.0762 18.0239C27.0762 17.4894 27.1866 16.9602 27.4011 16.4664C27.6156 15.9727 27.93 15.524 28.3264 15.1461C28.7227 14.7682 29.1933 14.4684 29.7111 14.2639C30.229 14.0594 30.784 13.9541 31.3446 13.9541C31.9051 13.9541 32.4602 14.0594 32.978 14.2639C33.4959 14.4684 33.9664 14.7682 34.3628 15.1461C34.7591 15.524 35.0736 15.9727 35.2881 16.4664C35.5026 16.9602 35.613 17.4894 35.613 18.0239C35.613 19.1032 35.1633 20.1384 34.3628 20.9016C33.5623 21.6648 32.4766 22.0936 31.3446 22.0936C30.2125 22.0936 29.1268 21.6648 28.3264 20.9016C27.5259 20.1384 27.0762 19.1032 27.0762 18.0239ZM31.3446 17.4425C31.1829 17.4425 31.0278 17.5037 30.9134 17.6128C30.799 17.7218 30.7348 17.8697 30.7348 18.0239C30.7348 18.1781 30.799 18.3259 30.9134 18.435C31.0278 18.544 31.1829 18.6053 31.3446 18.6053C31.5063 18.6053 31.6614 18.544 31.7757 18.435C31.8901 18.3259 31.9543 18.1781 31.9543 18.0239C31.9543 17.8697 31.8901 17.7218 31.7757 17.6128C31.6614 17.5037 31.5063 17.4425 31.3446 17.4425Z" fill="#9F9C9C" fill-opacity="0.5"/>
<path d="M28.9039 29.6521C29.5508 29.6521 30.1712 29.4071 30.6286 28.971C31.086 28.5349 31.343 27.9433 31.343 27.3266C31.343 26.7098 31.086 26.1183 30.6286 25.6821C30.1712 25.246 29.5508 25.001 28.9039 25.001C28.257 25.001 27.6367 25.246 27.1792 25.6821C26.7218 26.1183 26.4648 26.7098 26.4648 27.3266C26.4648 27.9433 26.7218 28.5349 27.1792 28.971C27.6367 29.4071 28.257 29.6521 28.9039 29.6521Z" fill="#9F9C9C" fill-opacity="0.5"/>
<path fill-rule="evenodd" clip-rule="evenodd" d="M15.4888 6.72468e-08C16.4159 6.77984e-05 17.3279 0.224069 18.1396 0.6511C18.9513 1.07813 19.6364 1.69427 20.1308 2.44202C20.6252 3.18978 20.9129 4.04477 20.967 4.92721C21.0211 5.80965 20.8398 6.69077 20.4402 7.48835L24.1159 10.9907C26.2117 9.35061 28.6596 8.16931 31.2868 7.53021C30.8759 6.72733 30.6874 5.83751 30.7394 4.94552C30.7913 4.05353 31.0819 3.18906 31.5835 2.43448C32.0851 1.6799 32.7809 1.06032 33.6048 0.634778C34.4286 0.209233 35.353 -0.00811086 36.2899 0.00344992C37.2268 0.0150107 38.145 0.255091 38.957 0.700822C39.769 1.14655 40.4478 1.78309 40.9287 2.5498C41.4097 3.3165 41.6767 4.18785 41.7044 5.08082C41.7321 5.9738 41.5196 6.85867 41.087 7.65114C43.7017 8.34882 46.0945 9.56509 48.136 11.1744L49.5604 9.81393C49.0022 8.70013 48.8749 7.43402 49.2012 6.23942C49.5274 5.04481 50.2861 3.99864 51.3431 3.28583C52.4001 2.57302 53.6874 2.23947 54.9774 2.34415C56.2675 2.44884 57.4771 2.985 58.3926 3.85788C59.3081 4.73076 59.8704 5.88413 59.9802 7.11412C60.09 8.3441 59.7402 9.5715 58.9926 10.5793C58.245 11.5872 57.1477 12.3105 55.8948 12.6216C54.6419 12.9326 53.314 12.8113 52.1458 12.279L50.7214 13.6395C52.2943 15.4505 53.4868 17.5334 54.2337 19.7744L54.5142 19.7674C55.2349 19.775 55.9469 19.9179 56.6097 20.1879C57.2725 20.458 57.873 20.8498 58.3769 21.3411C58.8808 21.8324 59.2784 22.4135 59.5468 23.0512C59.8152 23.689 59.9492 24.3709 59.9412 25.0581C59.9332 25.7452 59.7833 26.4241 59.5001 27.0561C59.2169 27.688 58.8059 28.2605 58.2907 28.741C57.7754 29.2215 57.1659 29.6005 56.497 29.8564C55.8281 30.1123 55.1129 30.2401 54.3922 30.2325C53.533 33.0742 51.9396 35.665 49.758 37.7673L49.8312 37.8371C50.9993 37.3049 52.3272 37.1835 53.5801 37.4946C54.8331 37.8056 55.9303 38.529 56.6779 39.5368C57.4255 40.5447 57.7753 41.772 57.6655 43.002C57.5557 44.232 56.9934 45.3854 56.0779 46.2583C55.1624 47.1312 53.9528 47.6673 52.6627 47.772C51.3727 47.8767 50.0854 47.5431 49.0284 46.8303C47.9714 46.1175 47.2127 45.0713 46.8865 43.8767C46.5603 42.6821 46.6875 41.416 47.2457 40.3022L46.9286 39.9999C45.1567 41.14 43.191 41.9788 41.1187 42.479C40.654 43.3567 39.9393 44.0918 39.0565 44.6C38.1738 45.1083 37.1587 45.3691 36.1276 45.3526C35.0965 45.3361 34.0912 45.0429 33.2268 44.5067C32.3625 43.9705 31.674 43.2129 31.2404 42.3208C29.2733 41.7814 27.4097 40.9444 25.7208 39.8418C25.6427 39.9672 25.5485 40.0828 25.4403 40.1859L22.9207 42.5906C23.4593 43.713 23.5644 44.9809 23.2173 46.1701C22.8703 47.3592 22.0936 48.3931 21.0243 49.0891C19.9551 49.785 18.6623 50.0981 17.3744 49.9731C16.0865 49.8481 14.8864 49.293 13.9862 48.4059C13.086 47.5188 12.5437 46.3568 12.4551 45.1254C12.3666 43.8939 12.7375 42.6723 13.5022 41.6763C14.267 40.6804 15.3764 39.9743 16.6344 39.6829C17.8924 39.3914 19.2179 39.5334 20.3768 40.0836L22.8549 37.7185C22.8833 37.6921 22.9126 37.6665 22.9427 37.6418C20.6112 35.4209 18.9172 32.6662 18.023 29.6418C17.1919 30.0542 16.2638 30.2569 15.3273 30.2304C14.3907 30.204 13.4768 29.9494 12.6727 29.4909C11.8686 29.0323 11.201 28.3851 10.7335 27.6109C10.266 26.8366 10.0142 25.9612 10.0021 25.0679C9.98993 24.1746 10.2179 23.2932 10.6642 22.5077C11.1105 21.7222 11.7603 21.0587 12.5517 20.5805C13.3432 20.1023 14.2498 19.8252 15.1853 19.7757C16.1209 19.7262 17.0541 19.9058 17.8962 20.2976C18.5669 17.7917 19.8067 15.4569 21.528 13.4581L17.8547 9.95346C17.1115 10.2922 16.2977 10.4671 15.4739 10.4651C14.6501 10.4631 13.8373 10.2842 13.0959 9.94187C12.3544 9.59949 11.7033 9.10235 11.1909 8.48732C10.6785 7.87229 10.3178 7.15515 10.1357 6.3891C9.95364 5.62304 9.95478 4.82772 10.139 4.06214C10.3233 3.29656 10.686 2.58035 11.2002 1.96665C11.7144 1.35295 12.3669 0.857498 13.1093 0.517045C13.8517 0.176592 14.665 -0.000125854 15.4888 6.72468e-08ZM17.3181 5.23255C17.3181 5.0035 17.2708 4.77669 17.1789 4.56508C17.087 4.35346 16.9522 4.16118 16.7823 3.99922C16.6125 3.83726 16.4108 3.70878 16.1889 3.62113C15.9669 3.53348 15.7291 3.48836 15.4888 3.48836C15.2486 3.48836 15.0107 3.53348 14.7888 3.62113C14.5668 3.70878 14.3652 3.83726 14.1953 3.99922C14.0254 4.16118 13.8907 4.35346 13.7988 4.56508C13.7068 4.77669 13.6595 5.0035 13.6595 5.23255C13.6595 5.69513 13.8522 6.13877 14.1953 6.46587C14.5384 6.79297 15.0037 6.97673 15.4888 6.97673C15.974 6.97673 16.4393 6.79297 16.7823 6.46587C17.1254 6.13877 17.3181 5.69513 17.3181 5.23255ZM36.4991 39.5348C38.4665 39.5415 40.4158 39.1771 42.2348 38.4623C44.0538 37.7476 45.7065 36.6968 47.0977 35.3704C48.4888 34.0439 49.5909 32.4682 50.3406 30.7338C51.0902 28.9995 51.4724 27.1409 51.4653 25.2651V25.1441C51.3971 17.1069 44.4993 10.5302 36.0698 10.4651C34.0812 10.4423 32.1078 10.799 30.2658 11.5141C28.4239 12.2293 26.7505 13.2884 25.3442 14.6293C23.9379 15.9701 22.827 17.5656 22.077 19.3219C21.327 21.0781 20.9529 22.9596 20.9768 24.8558C21.0451 32.8929 27.9428 39.4697 36.3747 39.5348H36.4991ZM55.124 23.3558C55.4805 23.4761 55.7891 23.6988 56.0073 23.9932C56.2256 24.2877 56.3428 24.6394 56.3428 24.9999C56.3428 25.3605 56.2256 25.7122 56.0073 26.0066C55.7891 26.3011 55.4805 26.5238 55.124 26.6441V23.3558ZM54.5142 5.81394C54.029 5.81394 53.5637 5.9977 53.2207 6.3248C52.8776 6.6519 52.6849 7.09553 52.6849 7.55812C52.6849 8.02071 52.8776 8.46435 53.2207 8.79144C53.5637 9.11854 54.029 9.3023 54.5142 9.3023C54.9994 9.3023 55.4647 9.11854 55.8077 8.79144C56.1508 8.46435 56.3435 8.02071 56.3435 7.55812C56.3435 7.09553 56.1508 6.6519 55.8077 6.3248C55.4647 5.9977 54.9994 5.81394 54.5142 5.81394ZM15.4888 23.2558C15.974 23.2558 16.4393 23.4395 16.7823 23.7666C17.1254 24.0937 17.3181 24.5374 17.3181 24.9999C17.3181 25.4625 17.1254 25.9062 16.7823 26.2333C16.4393 26.5604 15.974 26.7441 15.4888 26.7441C15.0037 26.7441 14.5384 26.5604 14.1953 26.2333C13.8522 25.9062 13.6595 25.4625 13.6595 24.9999C13.6595 24.5374 13.8522 24.0937 14.1953 23.7666C14.5384 23.4395 15.0037 23.2558 15.4888 23.2558ZM50.3678 42.558C50.3678 43.0206 50.5605 43.4643 50.9036 43.7914C51.2466 44.1185 51.7119 44.3022 52.1971 44.3022C52.6822 44.3022 53.1475 44.1185 53.4906 43.7914C53.8337 43.4643 54.0264 43.0206 54.0264 42.558C54.0264 42.0954 53.8337 41.6518 53.4906 41.3247C53.1475 40.9976 52.6822 40.8138 52.1971 40.8138C51.7119 40.8138 51.2466 40.9976 50.9036 41.3247C50.5605 41.6518 50.3678 42.0954 50.3678 42.558ZM17.9279 46.5115C18.4131 46.5115 18.8784 46.3278 19.2214 46.0007C19.5645 45.6736 19.7572 45.2299 19.7572 44.7673C19.7572 44.3047 19.5645 43.8611 19.2214 43.534C18.8784 43.2069 18.4131 43.0231 17.9279 43.0231C17.4427 43.0231 16.9775 43.2069 16.6344 43.534C16.2913 43.8611 16.0986 44.3047 16.0986 44.7673C16.0986 45.2299 16.2913 45.6736 16.6344 46.0007C16.9775 46.3278 17.4427 46.5115 17.9279 46.5115ZM34.3917 5.23255C34.3917 4.76996 34.5845 4.32632 34.9275 3.99922C35.2706 3.67212 35.7359 3.48836 36.2211 3.48836C36.7062 3.48836 37.1715 3.67212 37.5146 3.99922C37.8576 4.32632 38.0504 4.76996 38.0504 5.23255C38.0504 5.69513 37.8576 6.13877 37.5146 6.46587C37.1715 6.79297 36.7062 6.97673 36.2211 6.97673C35.7359 6.97673 35.2706 6.79297 34.9275 6.46587C34.5845 6.13877 34.3917 5.69513 34.3917 5.23255Z" fill="#9F9C9C" fill-opacity="0.5"/>
</svg>
