<svg width="70" height="75" viewBox="0 0 70 75" fill="none" xmlns="http://www.w3.org/2000/svg">
<path fill-rule="evenodd" clip-rule="evenodd" d="M36.4562 20.9324C37.9209 18.893 40.093 17.4248 42.7151 17.4248C45.4165 17.4248 47.493 18.8763 48.9651 20.9142C50.4386 18.8763 52.515 17.4248 55.215 17.4248C56.768 17.4248 58.1415 17.8612 59.3062 18.6369C60.1944 19.2387 60.961 20.012 61.5636 20.9142C61.7875 21.2433 61.8753 21.6506 61.8077 22.0464C61.7401 22.4422 61.5227 22.7941 61.2033 23.0248C60.8839 23.2555 60.4886 23.3459 60.1044 23.2763C59.7202 23.2067 59.3786 22.9827 59.1548 22.6536C58.09 21.0884 56.7371 20.4551 55.215 20.4551C53.1871 20.4551 51.4798 21.89 50.3003 24.5218L48.9651 27.499L47.6312 24.5218C46.4503 21.89 44.7445 20.4551 42.7151 20.4551C41.2445 20.4551 39.8753 21.2672 38.8209 22.7339C37.7621 24.2081 37.1033 26.2551 37.1033 28.4142C37.1033 29.5809 37.2739 30.7021 37.5768 31.7763C37.7268 32.3021 37.9077 32.8172 38.1165 33.3218C39.6033 36.9081 42.8709 39.8854 45.5548 42.0369C45.8529 42.287 46.0441 42.6474 46.0875 43.0409C46.1309 43.4345 46.023 43.8299 45.7869 44.1425C45.5508 44.455 45.2053 44.6599 44.8244 44.7133C44.4434 44.7666 44.0574 44.6642 43.7489 44.4278C43.2739 44.049 42.7636 43.6293 42.2371 43.1748C39.7665 41.043 36.9048 38.1112 35.4121 34.5127C35.156 33.8976 34.936 33.2671 34.7533 32.6248C34.3628 31.2569 34.1637 29.8385 34.1621 28.4127C34.1621 25.6551 34.9959 22.9672 36.4562 20.9324Z" fill="white"/>
<path d="M34.6429 10.303L37.1032 15.1515L39.9547 10.303C42.1312 5.59394 45.2679 3.0303 49.0179 3.0303C51.7429 3.0303 54.2635 4.48788 56.1974 7.10303C58.1429 9.73485 59.3577 13.3909 59.3577 17.2409C59.3577 17.7106 59.34 18.1742 59.3062 18.6364C60.1943 19.2381 60.9609 20.0114 61.5635 20.9136C61.7268 21.153 61.8135 21.4258 61.8282 21.6985C62.1738 20.2212 62.2988 18.9818 62.2988 17.2409C62.2988 8.29697 56.6944 0 49.0179 0C44.8121 0 41.4621 2.32121 39.0371 5.89848C38.3759 6.88132 37.7945 7.91867 37.2988 9C36.8032 7.91818 36.2218 6.88032 35.5606 5.89697C33.1356 2.32121 29.7871 0 25.5782 0C17.9032 0 12.2988 8.29545 12.2988 17.2424C12.2988 19.6455 12.6606 21.9455 13.2988 24.1318C13.6106 25.2015 13.9885 26.2439 14.4209 27.2576C20.4606 41.3864 37.2988 50 37.2988 50C37.2988 50 40.9106 48.0333 45.3885 44.5439C45.135 44.6949 44.8435 44.7644 44.5514 44.7437C44.2593 44.7229 43.9798 44.6127 43.7488 44.4273C43.2738 44.0485 42.7635 43.6288 42.2371 43.1742C41.2871 43.8773 40.3959 44.5 39.5988 45.0364C38.8298 45.5533 38.0502 46.0534 37.2606 46.5364C34.7044 45.0376 32.2498 43.3621 29.9135 41.5212C25.1091 37.7288 19.84 32.4197 17.1135 26.0364C16.7258 25.1331 16.3923 24.2061 16.115 23.2606C15.5388 21.309 15.244 19.2808 15.24 17.2409C15.24 13.3894 16.4547 9.73333 18.4018 7.10303C20.3327 4.48788 22.8532 3.0303 25.5782 3.0303C29.3282 3.0303 32.4665 5.59394 34.6429 10.303ZM60.0282 27.4258C60.2472 27.4289 60.4634 27.4765 60.6644 27.5658C60.8655 27.6551 61.0475 27.7844 61.2001 27.9462C61.3526 28.108 61.4727 28.2992 61.5535 28.5089C61.6343 28.7186 61.6742 28.9426 61.6709 29.1682C61.5974 34.7894 58.9577 38.6151 56.3929 40.9864C55.3264 41.9704 54.1553 42.8268 52.9018 43.5394C52.4117 43.8178 51.9081 44.0701 51.3929 44.2955C51.3503 44.3121 51.3165 44.3258 51.2915 44.3379L51.2606 44.35L51.2488 44.3545L51.2444 44.3561C50.8351 44.4991 50.3878 44.4727 49.9969 44.2826C49.6061 44.0924 49.3021 43.7533 49.1492 43.3368C48.9962 42.9203 49.0062 42.4588 49.1771 42.0497C49.3479 41.6407 49.6663 41.3159 50.065 41.1439L50.0724 41.1409L50.1253 41.1182C50.5237 40.9422 50.9134 40.746 51.2929 40.5303C52.3244 39.9445 53.2884 39.2405 54.1665 38.4318C56.2444 36.5106 58.2797 33.5318 58.3385 29.1197C58.3414 28.8941 58.3874 28.6714 58.4739 28.4641C58.5604 28.2569 58.6857 28.0692 58.8426 27.9119C58.9995 27.7546 59.185 27.6307 59.3885 27.5473C59.5919 27.4638 59.8093 27.4226 60.0282 27.4258Z" fill="white"/>
<path d="M18.2348 60V73.664H16.7308V60H18.2348ZM13.3708 60.08H14.8588V73.424H13.3708V67.024H11.0828C10.8054 68.8053 10.1654 70.208 9.16275 71.232C8.17075 72.2453 6.91742 72.7733 5.40275 72.816V71.36C6.58675 71.296 7.53608 70.8747 8.25075 70.096C8.96542 69.3067 9.41875 68.24 9.61075 66.896H5.40275V65.472H9.72275V65.312V61.92H5.40275V60.496H11.2268V65.088V65.536H13.3708V60.08ZM33.3534 60V73.664H31.7694V67.152H29.1454C29.0814 69.0933 28.6814 70.56 27.9454 71.552C27.22 72.5333 26.2654 73.024 25.0814 73.024C23.8334 73.024 22.8414 72.4907 22.1054 71.424C21.3694 70.3573 21.0014 68.7733 21.0014 66.672C21.0014 64.5707 21.3694 62.9867 22.1054 61.92C22.8414 60.8533 23.8334 60.32 25.0814 60.32C26.2227 60.32 27.1507 60.768 27.8654 61.664C28.58 62.56 28.996 63.8933 29.1134 65.664H31.7694V60H33.3534ZM25.0814 71.568C25.828 71.568 26.4254 71.168 26.8734 70.368C27.332 69.5573 27.5614 68.3253 27.5614 66.672C27.5614 65.0187 27.332 63.792 26.8734 62.992C26.4254 62.1813 25.828 61.776 25.0814 61.776C24.324 61.776 23.716 62.1813 23.2574 62.992C22.8094 63.792 22.5854 65.0187 22.5854 66.672C22.5854 68.3253 22.8094 69.5573 23.2574 70.368C23.716 71.168 24.324 71.568 25.0814 71.568ZM40.472 61.44H36.68V60.16H42.056V64.08H40.472V61.44ZM47.016 61.44H42.856V60.16H48.584V64.08H47.016V61.44ZM43.48 66.032V67.504H48.584V71.104H38.376V72.272H48.824V73.504H36.824V69.904H47.032V68.736H36.792V67.504H41.912V66.032H35.88V64.768H49.528V66.032H43.48ZM64.0226 60V67.552H62.4386V60H64.0226ZM61.3666 66.752C60.94 66.9333 60.332 67.0827 59.5426 67.2C58.764 67.3067 57.8946 67.36 56.9346 67.36H51.8946V60.336H60.3746V61.616H53.4626V63.216H60.1026V64.464H53.4626V66.08H57.0626C57.9906 66.08 58.828 66.0267 59.5746 65.92C60.332 65.8133 60.9293 65.664 61.3666 65.472V66.752ZM62.4546 68.304H64.0226V73.488H52.4386V68.304H54.0066V69.552H62.4546V68.304ZM62.4546 72.208V70.8H54.0066V72.208H62.4546Z" fill="white"/>
</svg>
