<svg width="70" height="75" viewBox="0 0 70 75" fill="none" xmlns="http://www.w3.org/2000/svg">
<path d="M38.7338 1.23125C40.1204 0.29375 41.7337 2.67494e-08 42.8337 2.67494e-08H47.6536C49.1636 -0.0001171 50.6452 0.384414 51.9402 1.1125L57.8834 4.45625C58.3764 4.73395 58.7844 5.12654 59.0677 5.59583C59.351 6.06512 59.4999 6.59515 59.5 7.13437V10.9375C59.5 12.1807 58.9732 13.373 58.0356 14.2521C57.0979 15.1311 55.8262 15.625 54.5001 15.625H52.8335V40.7438C54.2368 40.9469 55.6434 41.4375 56.8167 42.3531C58.5167 43.6781 59.5 45.7187 59.5 48.4375C59.5 48.8519 59.3244 49.2493 59.0119 49.5424C58.6993 49.8354 58.2754 50 57.8334 50H19.5009C17.403 50.0002 15.3581 49.3818 13.6557 48.2324C11.9534 47.0829 10.6797 45.4606 10.0151 43.5951C9.35045 41.7295 9.32848 39.7153 9.95229 37.8374C10.5761 35.9595 11.8141 34.3131 13.491 33.1313C13.8448 32.892 14.2846 32.7923 14.7159 32.8536C15.1473 32.9149 15.5358 33.1323 15.798 33.4592C16.0603 33.786 16.1753 34.1963 16.1186 34.6018C16.0618 35.0073 15.8377 35.3758 15.4943 35.6281C14.3759 36.4159 13.5501 37.5136 13.134 38.7657C12.7178 40.0178 12.7323 41.3609 13.1755 42.6049C13.6186 43.8488 14.4679 44.9306 15.6032 45.6969C16.7384 46.4633 18.102 46.8754 19.5009 46.875C20.4609 46.875 21.0675 46.6563 21.4675 46.4063C21.863 46.1505 22.1792 45.8011 22.3842 45.3937C22.6519 44.8802 22.805 44.3209 22.8342 43.75V43.6094L22.8475 43.2656C22.958 41.4568 23.2482 39.6615 23.7141 37.9031C24.5908 34.6219 26.3674 30.4156 29.9873 27.0187C36.1339 21.2594 36.1672 13.5344 36.1672 10.9375V6.25C36.1672 3.86562 37.2672 2.225 38.7338 1.23125ZM39.2471 15.3125C38.7305 19.2375 37.1505 24.725 32.3473 29.2313C29.3007 32.0844 27.744 35.6906 26.9507 38.6594C26.5374 40.2159 26.2786 41.805 26.1774 43.4063C26.1729 43.4968 26.1696 43.5875 26.1674 43.6781V43.8531L26.1541 44.0625C26.0804 45.0429 25.797 45.9994 25.3208 46.875H45.897C45.5636 45.875 44.887 44.8469 43.7237 44.275C42.9302 43.9063 42.0523 43.7261 41.1671 43.75H37.8338C37.3918 43.75 36.9679 43.5854 36.6553 43.2924C36.3428 42.9993 36.1672 42.6019 36.1672 42.1875C36.1672 41.7731 36.3428 41.3757 36.6553 41.0826C36.9679 40.7896 37.3918 40.625 37.8338 40.625H41.1671C41.7537 40.625 42.3071 40.6687 42.8337 40.75V32.8125C42.8337 32.3981 43.0093 32.0007 43.3219 31.7076C43.6344 31.4146 44.0583 31.25 44.5003 31.25C44.9424 31.25 45.3663 31.4146 45.6788 31.7076C45.9914 32.0007 46.167 32.3981 46.167 32.8125V42.025C48.1003 43.3312 48.9902 45.275 49.3269 46.875H55.9934C55.7434 45.85 55.2434 45.1906 54.6834 44.7563C53.8268 44.0844 52.5835 43.75 51.1669 43.75C50.7248 43.75 50.3009 43.5854 49.9884 43.2924C49.6758 42.9993 49.5002 42.6019 49.5002 42.1875V14.0625C49.5002 13.6481 49.6758 13.2507 49.9884 12.9576C50.3009 12.6646 50.7248 12.5 51.1669 12.5H54.5001C54.9421 12.5 55.366 12.3354 55.6786 12.0424C55.9912 11.7493 56.1667 11.3519 56.1667 10.9375V7.13437L50.2269 3.79063C49.4493 3.35421 48.5599 3.12414 47.6536 3.125H42.8337C42.2671 3.125 41.3804 3.29688 40.6838 3.76875C40.0671 4.18125 39.5004 4.88437 39.5004 6.25V10.9375C39.5004 11.2094 39.6004 11.65 39.8538 11.9781C40.0438 12.2281 40.3771 12.5 41.1671 12.5C41.9571 12.5 42.2904 12.225 42.4804 11.9781C42.7023 11.6703 42.825 11.309 42.8337 10.9375C42.8337 10.5231 43.0093 10.1257 43.3219 9.83265C43.6344 9.53962 44.0583 9.375 44.5003 9.375C44.9424 9.375 45.3663 9.53962 45.6788 9.83265C45.9914 10.1257 46.167 10.5231 46.167 10.9375C46.167 11.7094 45.9336 12.8312 45.187 13.8031C44.377 14.8562 43.0437 15.625 41.1671 15.625C40.5122 15.6309 39.8616 15.525 39.2471 15.3125Z" fill="white"/>
<path d="M12.1228 62.416H4.85875V61.2H7.75475V59.808H9.33875V61.2H12.1228V62.416ZM14.5868 67.984H13.1148V60.08H14.5868V63.2H16.7628V60H18.2348V68.464H16.7628V64.624H14.5868V67.984ZM11.7868 65.68C11.7868 66.4373 11.4828 67.0453 10.8748 67.504C10.2668 67.952 9.49875 68.176 8.57075 68.176C7.64275 68.176 6.87475 67.952 6.26675 67.504C5.65875 67.0453 5.35475 66.4373 5.35475 65.68C5.35475 64.9227 5.65875 64.32 6.26675 63.872C6.87475 63.4133 7.64275 63.184 8.57075 63.184C9.49875 63.184 10.2668 63.4133 10.8748 63.872C11.4828 64.32 11.7868 64.9227 11.7868 65.68ZM6.77875 65.68C6.77875 66.064 6.94408 66.384 7.27475 66.64C7.60542 66.896 8.03742 67.024 8.57075 67.024C9.10408 67.024 9.53608 66.896 9.86675 66.64C10.1974 66.384 10.3628 66.064 10.3628 65.68C10.3628 65.296 10.1974 64.976 9.86675 64.72C9.53608 64.464 9.10408 64.336 8.57075 64.336C8.03742 64.336 7.60542 64.464 7.27475 64.72C6.94408 64.976 6.77875 65.296 6.77875 65.68ZM12.2987 68.736C14.1334 68.736 15.6054 68.9333 16.7148 69.328C17.8348 69.712 18.3948 70.336 18.3948 71.2C18.3948 72.0533 17.8348 72.6773 16.7148 73.072C15.6054 73.4667 14.1334 73.664 12.2987 73.664C10.4641 73.664 8.98675 73.4667 7.86675 73.072C6.75742 72.6773 6.20275 72.0533 6.20275 71.2C6.20275 70.336 6.75742 69.712 7.86675 69.328C8.98675 68.9333 10.4641 68.736 12.2987 68.736ZM12.2987 72.432C13.5894 72.432 14.6508 72.3253 15.4828 72.112C16.3148 71.9093 16.7308 71.6053 16.7308 71.2C16.7308 70.7947 16.3148 70.4907 15.4828 70.288C14.6508 70.0747 13.5894 69.968 12.2987 69.968C11.0081 69.968 9.94675 70.0747 9.11475 70.288C8.28275 70.4907 7.86675 70.7947 7.86675 71.2C7.86675 71.6053 8.28275 71.9093 9.11475 72.112C9.94675 72.3253 11.0081 72.432 12.2987 72.432ZM34.1374 66.288V67.568H20.4894V66.288H26.5214V64.88H21.4654V60.16H33.1614V61.44H23.0494V63.6H33.3214V64.88H28.0894V66.288H34.1374ZM27.3054 68.704C29.108 68.704 30.5587 68.9013 31.6574 69.296C32.7667 69.6907 33.3214 70.3253 33.3214 71.2C33.3214 72.0747 32.7667 72.7093 31.6574 73.104C30.548 73.5093 29.0974 73.712 27.3054 73.712C25.5134 73.712 24.0627 73.5093 22.9534 73.104C21.844 72.7093 21.2894 72.0747 21.2894 71.2C21.2894 70.3253 21.8387 69.6907 22.9374 69.296C24.0467 68.9013 25.5027 68.704 27.3054 68.704ZM27.3054 72.464C28.5534 72.464 29.588 72.3627 30.4094 72.16C31.2414 71.9573 31.6574 71.6373 31.6574 71.2C31.6574 70.7733 31.2414 70.4587 30.4094 70.256C29.588 70.0533 28.5534 69.952 27.3054 69.952C26.0574 69.952 25.0174 70.0533 24.1854 70.256C23.364 70.4587 22.9534 70.7733 22.9534 71.2C22.9534 71.6373 23.364 71.9573 24.1854 72.16C25.0174 72.3627 26.0574 72.464 27.3054 72.464ZM49.016 60V68.576H47.512V64.672H45.288V68.432H43.784V60.08H45.288V63.2H47.512V60H49.016ZM42.216 67.824H36.296V60.24H37.768V62.624H40.76V60.24H42.216V67.824ZM40.76 66.528V63.904H37.768V66.528H40.76ZM36.952 69.328H49.016V73.664H47.448V70.688H36.952V69.328ZM65.5586 66.928H63.6706V73.664H62.0866V60H63.6706V65.408H65.5586V66.928ZM57.9906 62H51.7666V60.528H59.5906V69.232H57.9906V62ZM56.4706 71.36C58.5613 71.36 60.0546 71.168 60.9506 70.784V72.272C60.012 72.656 58.524 72.848 56.4866 72.848H51.2706V71.36H53.6546V65.568H55.2546V71.36H56.4706Z" fill="white"/>
</svg>
